<svg width="384" height="330" viewBox="0 0 384 330" fill="none" xmlns="http://www.w3.org/2000/svg">
<path d="M278.4 0C249.689 0 221.971 10.7586 201.461 28.3947C196.094 33.0091 187.906 33.0091 182.539 28.3947C162.029 10.7586 134.311 0 105.6 0C46.464 0 0 43.5204 0 98.9101C0 166.888 65.28 222.278 164.16 306.441L184.219 323.415C188.706 327.213 195.283 327.2 199.756 323.386L219.84 306.262C318.72 222.278 384 166.888 384 98.9101C384 43.5204 337.536 0 278.4 0ZM193.92 279.646C192.84 280.657 191.16 280.657 190.08 279.646C98.688 202.136 38.4 150.883 38.4 98.9101C38.4 62.9428 67.2 35.9673 105.6 35.9673C132.213 35.9673 158.204 50.3904 170.553 71.2377C173.029 75.4174 177.313 78.4087 182.171 78.4087H201.963C206.85 78.4087 211.152 75.3816 213.628 71.1678C225.854 50.3581 251.817 35.9673 278.4 35.9673C316.8 35.9673 345.6 62.9428 345.6 98.9101C345.6 150.883 285.312 202.136 193.92 279.646Z" fill="url(#paint0_linear)"/>
<path d="M52.0115 252.414L185.208 124.507C189.046 120.822 195.099 120.787 198.979 124.43L335.308 252.414" stroke="url(#paint1_linear)" stroke-width="35"/>
<path d="M68.0575 259.138L192 141.207L321.475 259.138C342.28 262.035 343.424 246.207 341.395 237.931L216.899 121.552C195.209 96.7241 173.556 111.207 165.441 121.552L44.265 237.414C40.2811 256.862 58.4667 260 68.0575 259.138Z" stroke="#4633AF" stroke-width="8"/>
<path d="M231.285 116.793C231.285 115.136 232.629 113.793 234.285 113.793H260.378C262.034 113.793 263.378 115.136 263.378 116.793V171.207L231.285 141.207V116.793Z" fill="url(#paint2_linear)"/>
<defs>
<linearGradient id="paint0_linear" x1="192" y1="0" x2="192" y2="330" gradientUnits="userSpaceOnUse">
<stop stop-color="#1648FF"/>
<stop offset="0.541667" stop-color="#9D9CE8"/>
<stop offset="1" stop-color="#2555FF"/>
</linearGradient>
<linearGradient id="paint1_linear" x1="193.66" y1="117.931" x2="193.66" y2="252.414" gradientUnits="userSpaceOnUse">
<stop stop-color="#1648FF"/>
<stop offset="0.541667" stop-color="#9D9CE8"/>
<stop offset="1" stop-color="#2555FF"/>
</linearGradient>
<linearGradient id="paint2_linear" x1="247.332" y1="113.793" x2="247.332" y2="171.207" gradientUnits="userSpaceOnUse">
<stop offset="0.265625" stop-color="#1648FF"/>
<stop offset="0.9999" stop-color="#9D9CE8"/>
<stop offset="1" stop-color="#2555FF"/>
</linearGradient>
</defs>
</svg>
