<svg width="1659" height="211" viewBox="0 0 1659 211" fill="none" xmlns="http://www.w3.org/2000/svg">
<path d="M167.016 139.797C165.422 161.828 157.266 179.172 142.547 191.828C127.922 204.484 108.609 210.812 84.6094 210.812C58.3594 210.812 37.6875 202 22.5938 184.375C7.59375 166.656 0.09375 142.375 0.09375 111.531V99.0156C0.09375 79.3281 3.5625 61.9844 10.5 46.9844C17.4375 31.9844 27.3281 20.5 40.1719 12.5312C53.1094 4.46875 68.1094 0.4375 85.1719 0.4375C108.797 0.4375 127.828 6.76562 142.266 19.4219C156.703 32.0781 165.047 49.8437 167.297 72.7188H125.109C124.078 59.5 120.375 49.9375 114 44.0312C107.719 38.0312 98.1094 35.0312 85.1719 35.0312C71.1094 35.0312 60.5625 40.0938 53.5312 50.2188C46.5938 60.25 43.0312 75.8594 42.8438 97.0469V112.516C42.8438 134.641 46.1719 150.812 52.8281 161.031C59.5781 171.25 70.1719 176.359 84.6094 176.359C97.6406 176.359 107.344 173.406 113.719 167.5C120.188 161.5 123.891 152.266 124.828 139.797H167.016ZM362.906 110.266C362.906 130.422 359.344 148.094 352.219 163.281C345.094 178.469 334.875 190.188 321.562 198.438C308.344 206.688 293.156 210.812 276 210.812C259.031 210.812 243.891 206.734 230.578 198.578C217.266 190.422 206.953 178.797 199.641 163.703C192.328 148.516 188.625 131.078 188.531 111.391V101.266C188.531 81.1094 192.141 63.3906 199.359 48.1094C206.672 32.7344 216.938 20.9688 230.156 12.8125C243.469 4.5625 258.656 0.4375 275.719 0.4375C292.781 0.4375 307.922 4.5625 321.141 12.8125C334.453 20.9688 344.719 32.7344 351.938 48.1094C359.25 63.3906 362.906 81.0625 362.906 101.125V110.266ZM320.156 100.984C320.156 79.5156 316.312 63.2031 308.625 52.0469C300.938 40.8906 289.969 35.3125 275.719 35.3125C261.562 35.3125 250.641 40.8437 242.953 51.9062C235.266 62.875 231.375 79 231.281 100.281V110.266C231.281 131.172 235.125 147.391 242.812 158.922C250.5 170.453 261.562 176.219 276 176.219C290.156 176.219 301.031 170.688 308.625 159.625C316.219 148.469 320.062 132.25 320.156 110.969V100.984ZM466.125 157.234L512.531 3.25H559.5L488.203 208H444.188L373.172 3.25H420L466.125 157.234ZM623.766 208H581.578V3.25H623.766V208ZM663 208V3.25H726C744 3.25 760.078 7.32812 774.234 15.4844C788.484 23.5469 799.594 35.0781 807.562 50.0781C815.531 64.9844 819.516 81.9531 819.516 100.984V110.406C819.516 129.438 815.578 146.359 807.703 161.172C799.922 175.984 788.906 187.469 774.656 195.625C760.406 203.781 744.328 207.906 726.422 208H663ZM705.188 37.4219V174.109H725.578C742.078 174.109 754.688 168.719 763.406 157.938C772.125 147.156 776.578 131.734 776.766 111.672V100.844C776.766 80.0312 772.453 64.2812 763.828 53.5938C755.203 42.8125 742.594 37.4219 726 37.4219H705.188ZM944.672 208H904.031V51.3438L855.516 66.3906V33.3438L940.312 2.96875H944.672V208ZM1106.39 126.156C1095.8 136.562 1083.42 141.766 1069.27 141.766C1051.17 141.766 1036.69 135.578 1025.81 123.203C1014.94 110.734 1009.5 93.9531 1009.5 72.8594C1009.5 59.4531 1012.41 47.1719 1018.22 36.0156C1024.12 24.7656 1032.33 16.0469 1042.83 9.85938C1053.33 3.57812 1065.14 0.4375 1078.27 0.4375C1091.77 0.4375 1103.77 3.8125 1114.27 10.5625C1124.77 17.3125 1132.92 27.0156 1138.73 39.6719C1144.55 52.3281 1147.5 66.8125 1147.59 83.125V98.1719C1147.59 132.297 1139.11 159.109 1122.14 178.609C1105.17 198.109 1081.12 208.516 1050 209.828L1040.02 209.969V176.078L1049.02 175.938C1084.36 174.344 1103.48 157.75 1106.39 126.156ZM1079.25 110.688C1085.81 110.688 1091.44 109 1096.12 105.625C1100.91 102.25 1104.52 98.1719 1106.95 93.3906V76.6562C1106.95 62.875 1104.33 52.1875 1099.08 44.5938C1093.83 37 1086.8 33.2031 1077.98 33.2031C1069.83 33.2031 1063.12 36.9531 1057.88 44.4531C1052.62 51.8594 1050 61.1875 1050 72.4375C1050 83.5938 1052.53 92.7812 1057.59 100C1062.75 107.125 1069.97 110.688 1079.25 110.688ZM1257.42 136.703H1178.25V103.938H1257.42V136.703ZM1459.22 208H1417.03L1334.91 73.2812V208H1292.72V3.25H1334.91L1417.17 138.25V3.25H1459.22V208ZM1658.06 182.125C1650.47 191.219 1639.73 198.297 1625.86 203.359C1611.98 208.328 1596.61 210.812 1579.73 210.812C1562.02 210.812 1546.45 206.969 1533.05 199.281C1519.73 191.5 1509.42 180.25 1502.11 165.531C1494.89 150.812 1491.19 133.516 1491 113.641V99.7188C1491 79.2812 1494.42 61.6094 1501.27 46.7031C1508.2 31.7031 1518.14 20.2656 1531.08 12.3906C1544.11 4.42187 1559.34 0.4375 1576.78 0.4375C1601.06 0.4375 1620.05 6.25 1633.73 17.875C1647.42 29.4062 1655.53 46.2344 1658.06 68.3594H1617C1615.12 56.6406 1610.95 48.0625 1604.48 42.625C1598.11 37.1875 1589.3 34.4688 1578.05 34.4688C1563.7 34.4688 1552.78 39.8594 1545.28 50.6406C1537.78 61.4219 1533.98 77.4531 1533.89 98.7344V111.812C1533.89 133.281 1537.97 149.5 1546.12 160.469C1554.28 171.438 1566.23 176.922 1581.98 176.922C1597.83 176.922 1609.12 173.547 1615.88 166.797V131.5H1577.48V100.422H1658.06V182.125Z" fill="white"/>
</svg>
